<svg width="1511" height="519" xmlns="http://www.w3.org/2000/svg" xmlns:xlink="http://www.w3.org/1999/xlink" xml:space="preserve" overflow="hidden"><defs><filter id="fx0" x="-10%" y="-10%" width="120%" height="120%" filterUnits="userSpaceOnUse" primitiveUnits="userSpaceOnUse"><feComponentTransfer color-interpolation-filters="sRGB"><feFuncR type="discrete" tableValues="0 0"/><feFuncG type="discrete" tableValues="0 0"/><feFuncB type="discrete" tableValues="0 0"/><feFuncA type="linear" slope="0.2" intercept="0"/></feComponentTransfer><feGaussianBlur stdDeviation="4.58646 4.58333"/></filter><clipPath id="clip1"><rect x="473" y="1355" width="1511" height="519"/></clipPath><clipPath id="clip2"><rect x="-2.50171" y="-2.5" width="740.004" height="57"/></clipPath><clipPath id="clip3"><rect x="0" y="0" width="734" height="50"/></clipPath></defs><g clip-path="url(#clip1)" transform="translate(-473 -1355)"><path d="M615.526 1355.02 708.026 1401.16 708.026 1492.89 615.526 1539.02 523.026 1492.89 523.026 1401.16Z" fill="#86B4A4" fill-rule="evenodd" fill-opacity="0.74902"/><path d="M861.552 1355.02 954.052 1401.16 954.052 1492.89 861.552 1539.02 769.052 1492.89 769.052 1401.16Z" fill="#20342B" fill-rule="evenodd" fill-opacity="0.74902"/><path d="M1108.08 1355.02 1200.08 1401.16 1200.08 1492.89 1108.08 1539.02 1016.08 1492.89 1016.08 1401.16Z" fill="#BDA776" fill-rule="evenodd" fill-opacity="0.74902"/><g clip-path="url(#clip2)" filter="url(#fx0)" transform="matrix(1.99864 0 0 2 472 1775)"><g clip-path="url(#clip3)"><path d="M0 15.6599 6.37457 8.53478 12.6788 1.50228 22.0303 10.8019 32.2137 0 44.0606 7.88702 55.0758 4.00056 66.0909 13.7167 159.618 14.1287C159.619 16.3958 159.62 18.6629 159.62 20.93L0 20.518 0 15.6599Z" fill="#F2F2F2" fill-rule="evenodd" transform="matrix(-4.35079 0 1.58356 1 686.847 14.57)"/></g></g><path d="M0 136.173 55.431 74.2155 110.25 13.0633 191.568 93.9292 280.119 0 383.136 68.5828 478.92 34.7875 574.703 119.276 1387.99 122.859C1387.99 142.572 1388 162.286 1388 182L0 178.417 0 136.173Z" fill="#F2F2F2" fill-rule="evenodd" transform="matrix(-1 0 0 1 1911 1664)"/><path d="M674.526 1468.02 767.026 1514.41 767.026 1606.64 674.526 1653.02 582.026 1606.64 582.026 1514.41Z" fill="#D0A26E" fill-rule="evenodd" fill-opacity="0.74902"/><path d="M920.552 1468.02 1013.05 1514.41 1013.05 1606.64 920.552 1653.02 828.052 1606.64 828.052 1514.41Z" fill="#8D9973" fill-rule="evenodd" fill-opacity="0.74902"/><path d="M1166.58 1468.02 1259.08 1514.41 1259.08 1606.64 1166.58 1653.02 1074.08 1606.64 1074.08 1514.41Z" fill="#B77D2B" fill-rule="evenodd" fill-opacity="0.74902"/><path d="M721.532 1585.04 814.032 1631.17 814.032 1722.9 721.532 1769.04 629.032 1722.9 629.032 1631.17Z" fill="#4F5838" fill-rule="evenodd" fill-opacity="0.74902"/><path d="M967.558 1585.04 1060.06 1631.17 1060.06 1722.9 967.558 1769.04 875.058 1722.9 875.058 1631.17Z" fill="#A96524" fill-rule="evenodd" fill-opacity="0.74902"/><path d="M1213.58 1585.04 1306.08 1631.17 1306.08 1722.9 1213.58 1769.04 1121.08 1722.9 1121.08 1631.17Z" fill="#20342B" fill-rule="evenodd" fill-opacity="0.74902"/><text fill="#1C2D27" font-family="Fira Sans Black,Fira Sans Black_MSFontService,sans-serif" font-weight="900" font-size="128" transform="matrix(1 0 0 1 1327.55 1576)">LULCC</text><text fill="#1C2D27" font-family="Fira Sans Black,Fira Sans Black_MSFontService,sans-serif" font-weight="900" font-size="128" transform="matrix(1 0 0 1 1694.22 1576)">-</text><text fill="#1C2D27" font-family="Fira Sans Black,Fira Sans Black_MSFontService,sans-serif" font-weight="900" font-size="128" transform="matrix(1 0 0 1 1746.93 1576)">CH</text></g></svg>